<?xml version="1.0" standalone="no"?>
<!DOCTYPE svg PUBLIC "-//W3C//DTD SVG 20010904//EN"
 "http://www.w3.org/TR/2001/REC-SVG-20010904/DTD/svg10.dtd">
<svg version="1.0" xmlns="http://www.w3.org/2000/svg"
 width="1895.000000pt" height="1895.000000pt" viewBox="0 0 1895.000000 1895.000000"
 preserveAspectRatio="xMidYMid meet">
<metadata>
Created by potrace 1.11, written by Peter Selinger 2001-2013
</metadata>
<g transform="translate(0.000000,1895.000000) scale(0.100000,-0.100000)"
fill="#000000" stroke="none">
<path d="M8994 15452 c-526 -521 -1727 -1711 -2182 -2160 -164 -161 -408 -403
-543 -538 l-246 -244 -3002 0 c-1652 1 -3005 0 -3007 -2 -2 -3 41 -49 95 -104
102 -102 1881 -1870 2611 -2594 224 -223 872 -866 1439 -1430 568 -564 1263
-1254 1546 -1535 282 -280 1011 -1005 1620 -1610 609 -605 1355 -1346 1658
-1647 l552 -547 535 539 c294 296 1129 1135 1855 1865 726 730 1520 1528 1765
1775 245 246 1055 1061 1800 1810 745 749 1557 1565 1803 1813 247 249 718
723 1048 1053 329 331 599 604 599 608 0 3 -1398 6 -3107 6 l-3107 0 -34 38
c-19 20 -115 121 -213 223 -99 102 -191 199 -206 215 -14 16 -80 85 -146 154
-126 131 -233 243 -431 450 -66 69 -162 170 -215 225 -53 55 -179 187 -281
294 -102 106 -205 214 -230 240 -45 47 -325 341 -433 455 -32 33 -136 142
-230 240 -95 98 -188 196 -207 216 -19 20 -105 110 -190 199 -85 89 -186 195
-223 234 -138 145 -218 227 -220 227 -1 -1 -214 -211 -473 -468z m841 -706
c152 -160 173 -182 370 -388 61 -63 193 -202 295 -308 102 -107 231 -242 286
-300 56 -58 121 -126 145 -151 38 -40 270 -283 424 -444 28 -29 127 -132 220
-230 94 -98 190 -199 215 -225 42 -43 290 -303 449 -470 39 -41 71 -80 71 -86
0 -6 -23 -76 -51 -155 -27 -79 -75 -214 -105 -299 -29 -85 -51 -157 -46 -161
4 -4 54 -23 112 -42 58 -20 170 -58 249 -86 79 -28 145 -50 146 -49 1 2 16 44
33 93 17 50 56 162 87 250 31 88 64 180 72 205 9 25 19 49 24 54 7 8 4786 13
4794 4 2 -1 -436 -444 -972 -983 -2120 -2132 -3371 -3390 -3868 -3890 -1865
-1878 -2579 -2594 -2582 -2591 -3 2 29 95 131 386 121 342 145 415 138 421 -7
6 -154 60 -252 92 -25 9 -90 32 -144 51 -55 20 -103 33 -108 28 -4 -4 -35 -86
-69 -182 -34 -96 -86 -245 -116 -330 -30 -85 -67 -191 -83 -235 -15 -44 -31
-87 -34 -96 -6 -12 7 -20 56 -36 71 -24 358 -125 402 -142 16 -6 27 -13 25
-16 -73 -77 -604 -605 -608 -605 -23 2 -151 125 -972 940 -506 503 -1147 1140
-1424 1415 -277 275 -970 964 -1540 1530 -570 567 -1250 1242 -1510 1500 -542
538 -2526 2510 -2657 2640 -48 48 -91 92 -97 98 -7 9 586 12 2448 11 l2457 -2
424 420 c234 231 736 728 1115 1103 380 376 899 890 1154 1142 255 252 476
471 490 486 l26 29 115 -120 c63 -65 183 -190 265 -276z"/>
<path d="M11872 10893 c-41 -121 -194 -555 -237 -676 l-25 -68 28 -10 c15 -6
77 -28 137 -49 61 -21 162 -57 225 -79 63 -23 117 -41 121 -41 4 0 16 26 27
58 11 31 37 104 57 162 20 58 47 134 60 170 13 36 44 126 70 200 26 74 50 144
55 155 21 49 43 116 39 118 -12 9 -494 177 -507 177 -5 0 -27 -53 -50 -117z"/>
<path d="M11419 9603 c-6 -16 -68 -192 -139 -393 -71 -201 -135 -383 -143
-406 l-15 -40 137 -48 c75 -26 191 -67 258 -90 l121 -43 41 114 c22 62 59 166
81 231 23 64 44 124 47 132 3 8 7 20 9 25 3 15 104 297 114 323 6 13 10 27 10
32 0 9 -56 40 -73 40 -9 0 -131 42 -197 67 -8 3 -19 7 -25 9 -5 1 -54 18 -108
38 -54 20 -100 36 -103 36 -2 0 -9 -12 -15 -27z"/>
<path d="M10922 8192 c-11 -31 -46 -129 -77 -217 -200 -563 -207 -587 -197
-596 4 -3 34 -16 67 -27 33 -11 145 -50 248 -86 l188 -65 10 27 c6 15 42 115
79 222 38 107 94 267 125 355 86 242 90 254 79 264 -5 4 -43 20 -84 34 -41 14
-152 53 -247 86 l-172 60 -19 -57z"/>
<path d="M10432 6803 c-11 -32 -36 -103 -56 -158 -64 -183 -147 -419 -181
-515 -18 -52 -36 -103 -40 -112 -8 -20 -17 -16 205 -95 191 -67 297 -103 304
-103 3 0 9 15 15 33 9 31 32 96 210 601 45 126 80 230 79 231 -3 1 -185 66
-380 134 -64 23 -121 41 -126 41 -6 0 -19 -26 -30 -57z"/>
</g>
</svg>
